<svg width="19" height="18" viewBox="0 0 19 18" fill="none" xmlns="http://www.w3.org/2000/svg">
<g clip-path="url(#clip0_127_2175)">
<path d="M18.5002 9.05527C18.5002 4.05352 14.4705 -0.000976562 9.50024 -0.000976562C4.52774 0.000148438 0.497986 4.05352 0.497986 9.0564C0.497986 13.5755 3.78974 17.3218 8.09174 18.0013V11.6732H5.80799V9.0564H8.09399V7.05952C8.09399 4.7904 9.43836 3.53715 11.4937 3.53715C12.4792 3.53715 13.5086 3.71377 13.5086 3.71377V5.94127H12.3735C11.2564 5.94127 10.9076 6.6399 10.9076 7.35652V9.05527H13.4029L13.0046 11.672H10.9065V18.0001C15.2085 17.3206 18.5002 13.5744 18.5002 9.05527Z" fill="white"/>
</g>
<defs>
<clipPath id="clip0_127_2175">
<rect width="18" height="18" fill="white" transform="translate(0.5)"/>
</clipPath>
</defs>
</svg>
