<svg width="19" height="18" viewBox="0 0 19 18" fill="none" xmlns="http://www.w3.org/2000/svg">
<g clip-path="url(#clip0_127_2177)">
<path d="M9.5 0C7.05762 0 6.7505 0.01125 5.79088 0.054C4.83125 0.099 4.17762 0.24975 3.605 0.4725C3.00407 0.697866 2.45991 1.05232 2.01088 1.51088C1.55232 1.95991 1.19787 2.50407 0.9725 3.105C0.74975 3.6765 0.597875 4.33125 0.554 5.2875C0.51125 6.24937 0.5 6.55538 0.5 9.00113C0.5 11.4446 0.51125 11.7506 0.554 12.7103C0.599 13.6688 0.74975 14.3224 0.9725 14.895C1.20312 15.4867 1.51025 15.9885 2.01088 16.4891C2.51038 16.9897 3.01213 17.298 3.60388 17.5275C4.17763 17.7502 4.83013 17.9021 5.78863 17.946C6.74938 17.9887 7.05537 18 9.5 18C11.9446 18 12.2495 17.9887 13.2103 17.946C14.1676 17.901 14.8235 17.7502 15.3961 17.5275C15.9966 17.302 16.5404 16.9475 16.9891 16.4891C17.4897 15.9885 17.7969 15.4867 18.0275 14.895C18.2491 14.3224 18.401 13.6688 18.446 12.7103C18.4887 11.7506 18.5 11.4446 18.5 9C18.5 6.55537 18.4887 6.24938 18.446 5.28863C18.401 4.33125 18.2491 3.6765 18.0275 3.105C17.8021 2.50407 17.4477 1.95991 16.9891 1.51088C16.5401 1.05232 15.9959 0.697866 15.395 0.4725C14.8212 0.24975 14.1665 0.097875 13.2091 0.054C12.2484 0.01125 11.9435 0 9.49775 0H9.5ZM8.69337 1.62225H9.50113C11.9041 1.62225 12.1887 1.63013 13.1371 1.674C14.0146 1.71338 14.4916 1.86075 14.8089 1.98338C15.2285 2.1465 15.5289 2.34225 15.8439 2.65725C16.1589 2.97225 16.3535 3.2715 16.5166 3.69225C16.6404 4.00838 16.7866 4.48538 16.826 5.36288C16.8699 6.31125 16.8789 6.59588 16.8789 8.99775C16.8789 11.3996 16.8699 11.6854 16.826 12.6337C16.7866 13.5112 16.6393 13.9871 16.5166 14.3044C16.3713 14.6946 16.1411 15.0478 15.8427 15.3382C15.5277 15.6532 15.2285 15.8479 14.8078 16.011C14.4928 16.1348 14.0157 16.281 13.1371 16.3215C12.1887 16.3643 11.9041 16.3744 9.50113 16.3744C7.09813 16.3744 6.81238 16.3643 5.864 16.3215C4.9865 16.281 4.51062 16.1348 4.19337 16.011C3.80281 15.8662 3.4493 15.6364 3.15837 15.3382C2.85943 15.0476 2.62887 14.694 2.48338 14.3032C2.36075 13.9871 2.21338 13.5101 2.174 12.6326C2.13125 11.6843 2.12225 11.3996 2.12225 8.9955C2.12225 6.59137 2.13125 6.309 2.174 5.36062C2.2145 4.48312 2.36075 4.00613 2.4845 3.68888C2.64763 3.26925 2.84337 2.96887 3.15837 2.65387C3.47337 2.33887 3.77262 2.14425 4.19337 1.98113C4.51062 1.85738 4.9865 1.71113 5.864 1.67063C6.69425 1.63238 7.016 1.62113 8.69337 1.62V1.62225ZM14.3049 3.11625C14.163 3.11625 14.0226 3.14419 13.8916 3.19846C13.7605 3.25274 13.6415 3.33229 13.5412 3.43257C13.4409 3.53286 13.3614 3.65192 13.3071 3.78295C13.2528 3.91398 13.2249 4.05442 13.2249 4.19625C13.2249 4.33808 13.2528 4.47852 13.3071 4.60955C13.3614 4.74058 13.4409 4.85964 13.5412 4.95993C13.6415 5.06021 13.7605 5.13976 13.8916 5.19404C14.0226 5.24831 14.163 5.27625 14.3049 5.27625C14.5913 5.27625 14.866 5.16246 15.0686 4.95993C15.2711 4.75739 15.3849 4.48268 15.3849 4.19625C15.3849 3.90982 15.2711 3.63511 15.0686 3.43257C14.866 3.23004 14.5913 3.11625 14.3049 3.11625ZM9.50113 4.3785C8.88808 4.36894 8.27926 4.48142 7.7101 4.70941C7.14094 4.9374 6.62283 5.27633 6.18592 5.70648C5.74901 6.13662 5.40203 6.64939 5.1652 7.21492C4.92836 7.78045 4.80639 8.38744 4.80639 9.00056C4.80639 9.61368 4.92836 10.2207 5.1652 10.7862C5.40203 11.3517 5.74901 11.8645 6.18592 12.2946C6.62283 12.7248 7.14094 13.0637 7.7101 13.2917C8.27926 13.5197 8.88808 13.6322 9.50113 13.6226C10.7145 13.6037 11.8717 13.1084 12.7231 12.2437C13.5745 11.3789 14.0516 10.2141 14.0516 9.00056C14.0516 7.78706 13.5745 6.62221 12.7231 5.75747C11.8717 4.89272 10.7145 4.39743 9.50113 4.3785ZM9.50113 5.99963C9.89514 5.99963 10.2853 6.07723 10.6493 6.22801C11.0133 6.3788 11.3441 6.5998 11.6227 6.87841C11.9013 7.15703 12.1223 7.48778 12.2731 7.85181C12.4239 8.21583 12.5015 8.60599 12.5015 9C12.5015 9.39401 12.4239 9.78417 12.2731 10.1482C12.1223 10.5122 11.9013 10.843 11.6227 11.1216C11.3441 11.4002 11.0133 11.6212 10.6493 11.772C10.2853 11.9228 9.89514 12.0004 9.50113 12.0004C8.70538 12.0004 7.94222 11.6843 7.37954 11.1216C6.81686 10.5589 6.50075 9.79575 6.50075 9C6.50075 8.20425 6.81686 7.44109 7.37954 6.87841C7.94222 6.31574 8.70538 5.99963 9.50113 5.99963Z" fill="white"/>
</g>
<defs>
<clipPath id="clip0_127_2177">
<rect width="18" height="18" fill="white" transform="translate(0.5)"/>
</clipPath>
</defs>
</svg>
