<svg width="107" height="38" viewBox="0 0 107 38" fill="none" xmlns="http://www.w3.org/2000/svg">
<path d="M41.3807 15.3946H46.3784C46.5371 15.3946 46.6942 15.363 46.8406 15.3017C46.987 15.2403 47.1197 15.1505 47.231 15.0373C47.3422 14.9242 47.4299 14.79 47.4888 14.6427C47.5477 14.4953 47.5767 14.3377 47.574 14.179V9.19317H35.2989C33.0757 9.19079 30.8817 9.69913 28.8861 10.679C26.8905 11.6588 25.1466 13.084 23.789 14.8446C22.4326 13.0836 20.6896 11.6581 18.6945 10.6782C16.6994 9.69829 14.5058 9.1902 12.2831 9.19317H0.0159329V14.179C0.0159321 14.3389 0.0474941 14.4973 0.108831 14.6451C0.170167 14.7928 0.260069 14.927 0.373366 15.0399C0.486663 15.1529 0.621149 15.2423 0.769087 15.3032C0.917025 15.364 1.07551 15.3951 1.23547 15.3946H12.3947V15.3746C14.5753 15.3746 16.6665 16.2409 18.2084 17.7828C19.7504 19.3247 20.6166 21.416 20.6166 23.5966C20.6166 25.7772 19.7504 27.8685 18.2084 29.4105C16.6665 30.9524 14.5753 31.8186 12.3947 31.8186H6.22922V25.6013H1.21954C0.896097 25.6013 0.585898 25.7298 0.35719 25.9585C0.128482 26.1872 0 26.4974 0 26.8209V31.8067H6.14153V38.0001H12.3429C14.5476 38.0018 16.7233 37.4967 18.7018 36.5237C20.6802 35.5507 22.4085 34.1359 23.7531 32.3886C25.0984 34.1352 26.8268 35.5495 28.8051 36.5225C30.7834 37.4954 32.9588 38.0009 35.1634 38.0001H41.3687V31.8067H47.5142V26.8049C47.5153 26.4853 47.3905 26.1781 47.1667 25.9498C46.9429 25.7215 46.6382 25.5906 46.3186 25.5854H41.3926V31.8067H35.2072C33.0267 31.8067 30.9354 30.9404 29.3935 29.3985C27.8516 27.8566 26.9853 25.7653 26.9853 23.5847C26.9853 21.4041 27.8516 19.3128 29.3935 17.7708C30.9354 16.2289 33.0267 15.3627 35.2072 15.3627V15.3826L41.3807 15.3946Z" fill="white"/>
<path d="M28.1573 4.01628L24.407 0.265961C24.2353 0.0955964 24.0033 0 23.7614 0C23.5195 0 23.2874 0.0955964 23.1157 0.265961L19.3654 4.01628L23.7494 8.40029L28.1573 4.01628Z" fill="white"/>
<path d="M53.6679 15.4425V9.80706H55.832C56.38 9.7886 56.9228 9.91948 57.4022 10.1857C57.8109 10.4257 58.1416 10.7786 58.3547 11.202C58.57 11.6422 58.6791 12.1268 58.6736 12.6168C58.6872 13.1356 58.5663 13.6491 58.3229 14.1074C58.0954 14.5254 57.7504 14.8677 57.3305 15.0918C56.8692 15.3349 56.3532 15.4557 55.832 15.4425H53.6679ZM57.1033 12.6168C57.1083 12.3538 57.0567 12.0929 56.9519 11.8516C56.8602 11.6426 56.7092 11.4652 56.5175 11.3415C56.3119 11.2144 56.0735 11.1507 55.832 11.1581H55.2142V14.0914H55.832C56.0702 14.1041 56.3065 14.0417 56.5074 13.913C56.7083 13.7843 56.8638 13.5958 56.9519 13.3741C57.0551 13.1351 57.1067 12.8771 57.1033 12.6168Z" fill="white"/>
<path d="M61.2876 9.80772H59.7413V15.4432H61.2876V9.80772Z" fill="white"/>
<path d="M65.0938 15.4668C64.7364 15.4692 64.382 15.4029 64.0496 15.2715C63.721 15.1444 63.4224 14.9503 63.1728 14.7016C62.9129 14.4418 62.7093 14.1311 62.575 13.7889C62.4219 13.3982 62.3474 12.981 62.3558 12.5614C62.3531 12.1819 62.4291 11.8061 62.579 11.4574C62.7237 11.1206 62.9333 10.8156 63.1959 10.5599C63.4585 10.3041 63.7689 10.1026 64.1094 9.96688C64.4703 9.82141 64.8562 9.74828 65.2452 9.75166C65.7252 9.74567 66.1992 9.85935 66.6242 10.0824C67.0172 10.2797 67.339 10.5946 67.5448 10.9832L66.393 11.8799C66.2846 11.6557 66.111 11.4696 65.8949 11.3458C65.6833 11.2137 65.4389 11.1433 65.1895 11.1426C65.0131 11.1398 64.8384 11.178 64.6793 11.2542C64.5262 11.3271 64.3904 11.4317 64.2808 11.5611C64.1625 11.7001 64.0731 11.8613 64.0177 12.0353C63.9558 12.2285 63.9248 12.4303 63.9261 12.6332C63.9232 12.8378 63.9555 13.0413 64.0217 13.235C64.0792 13.4064 64.1699 13.5649 64.2888 13.7013C64.3992 13.8287 64.5349 13.9318 64.6873 14.0041C64.8559 14.0762 65.038 14.1115 65.2213 14.1078C65.4708 14.108 65.7163 14.0449 65.9347 13.9244C66.1727 13.789 66.3824 13.609 66.5525 13.3944V14.9049C66.1567 15.2799 65.6311 15.487 65.0858 15.4828M66.4728 13.5538H65.4366V12.4418H67.7521V15.4429H66.4728V13.5538Z" fill="white"/>
<path d="M70.4623 9.80772H68.916V15.4432H70.4623V9.80772Z" fill="white"/>
<path d="M76.2173 11.1588H74.5992V15.4432H73.0528V11.1588H71.4228V9.80772H76.2173V11.1588Z" fill="white"/>
<path d="M77.967 9.80772H79.6966L81.4901 15.4432H79.9238L79.6329 14.3392H78.0387L77.7478 15.4432H76.1536L77.967 9.80772ZM79.3539 13.307L78.8318 11.3142L78.3057 13.307H79.3539Z" fill="white"/>
<path d="M82.3509 15.4432V9.80772H83.9012V14.0921H86.4558V15.4432H82.3509Z" fill="white"/>
<path d="M53.3569 20.6999C53.3569 20.3531 53.4232 20.0095 53.5521 19.6876C53.6828 19.3546 53.8748 19.0491 54.1181 18.7869C54.3744 18.5127 54.6835 18.2931 55.0268 18.1413C55.4034 17.9759 55.8111 17.893 56.2224 17.8981C56.7142 17.8862 57.2005 18.0029 57.6332 18.2369C58.014 18.4391 58.3261 18.7498 58.5299 19.1297L57.3343 19.9706C57.2765 19.8022 57.173 19.6532 57.0354 19.5402C56.91 19.4424 56.7664 19.3705 56.613 19.3289C56.4696 19.293 56.3224 19.2742 56.1745 19.2731C55.9756 19.2672 55.7783 19.311 55.6006 19.4007C55.4429 19.484 55.3065 19.6027 55.2021 19.7474C55.0984 19.8925 55.0202 20.0542 54.971 20.2257C54.9221 20.3954 54.8966 20.5711 54.8952 20.7477C54.8958 20.9384 54.9254 21.1279 54.9829 21.3097C55.0388 21.4843 55.1251 21.6475 55.238 21.7919C55.3455 21.9286 55.4815 22.0401 55.6365 22.1187C55.8053 22.2006 55.991 22.2415 56.1785 22.2383C56.326 22.2389 56.4727 22.216 56.613 22.1706C56.7588 22.1261 56.8943 22.0529 57.0115 21.9553C57.1378 21.8493 57.234 21.7118 57.2905 21.5568L58.5499 22.3101C58.4337 22.5917 58.242 22.8359 57.9959 23.0155C57.73 23.2146 57.4322 23.3669 57.1151 23.4658C56.7996 23.5675 56.4702 23.62 56.1387 23.6213C55.742 23.626 55.3494 23.5401 54.9909 23.3702C54.652 23.208 54.3476 22.982 54.0942 22.7046C53.845 22.4303 53.6478 22.113 53.5123 21.768C53.3756 21.4313 53.3052 21.0713 53.3051 20.7079" fill="white"/>
<path d="M61.9891 23.6132C61.5882 23.6176 61.1911 23.5346 60.8254 23.37C60.4855 23.2147 60.1794 22.9939 59.9247 22.7204C59.6766 22.4513 59.4795 22.1393 59.3428 21.7998C59.2116 21.4617 59.144 21.1023 59.1435 20.7396C59.1426 20.3718 59.2144 20.0075 59.3548 19.6675C59.4969 19.3298 59.701 19.0216 59.9566 18.7589C60.2145 18.4887 60.5251 18.2744 60.8692 18.1292C61.2327 17.972 61.6251 17.8933 62.021 17.898C62.4091 17.8921 62.794 17.9691 63.15 18.1237C63.5059 18.2783 63.8249 18.5071 64.0855 18.7947C64.3334 19.064 64.5281 19.3777 64.6594 19.7194C64.7933 20.054 64.8623 20.4111 64.8626 20.7715C64.8644 21.1364 64.794 21.4981 64.6554 21.8356C64.5147 22.1732 64.3119 22.4815 64.0576 22.7443C63.7905 23.0229 63.4692 23.2437 63.1134 23.3932C62.7576 23.5426 62.375 23.6175 61.9891 23.6132ZM60.7138 20.7556C60.7137 20.9418 60.7406 21.127 60.7935 21.3056C60.8422 21.4787 60.9233 21.641 61.0326 21.7838C61.1376 21.9239 61.2741 22.0373 61.4312 22.1146C61.6099 22.201 61.8066 22.2434 62.0051 22.2382C62.2066 22.2446 62.4066 22.2008 62.5869 22.1106C62.7454 22.03 62.8821 21.9124 62.9855 21.7679C63.0895 21.6201 63.1677 21.4557 63.2167 21.2817C63.2677 21.1055 63.2932 20.923 63.2924 20.7396C63.2927 20.5547 63.2659 20.3707 63.2127 20.1936C63.1631 20.0221 63.082 19.8612 62.9735 19.7194C62.8691 19.5787 62.7324 19.4653 62.575 19.3886C62.3966 19.3057 62.2017 19.2648 62.0051 19.269C61.805 19.2645 61.6068 19.3083 61.4272 19.3965C61.2714 19.4793 61.1354 19.5949 61.0287 19.7353C60.9199 19.8764 60.84 20.0376 60.7935 20.2096C60.7424 20.387 60.7169 20.5709 60.7178 20.7556" fill="white"/>
<path d="M70.1872 23.5728V20.6036L69.2427 22.692H68.4177L67.4732 20.6036V23.5728H65.9268V17.9373H67.6166L68.8282 20.5876L70.0517 17.9373H71.7336V23.5728H70.1872Z" fill="white"/>
<path d="M77.3611 23.5728V20.6036L76.4165 22.692H75.5915L74.647 20.6036V23.5728H73.1006V17.9373H74.7905L76.002 20.5876L77.2256 17.9373H78.9074V23.5728H77.3611Z" fill="white"/>
<path d="M82.7336 23.6126C82.3355 23.6218 81.9401 23.5457 81.5738 23.3894C81.2624 23.2541 80.9888 23.0448 80.7768 22.7796C80.5712 22.514 80.4195 22.2107 80.3304 21.8869C80.2337 21.5432 80.1854 21.1877 80.1869 20.8307V17.9373H81.7332V20.8268C81.7332 21.0062 81.7519 21.1852 81.789 21.3608C81.822 21.5197 81.8812 21.6719 81.9644 21.8112C82.039 21.9389 82.1445 22.0458 82.2713 22.122C82.4083 22.2039 82.5662 22.2441 82.7256 22.2376C82.8902 22.2444 83.0533 22.2044 83.1959 22.122C83.3225 22.0452 83.4269 21.9367 83.4988 21.8072C83.58 21.6659 83.6379 21.5125 83.6702 21.3528C83.7069 21.1799 83.7256 21.0036 83.726 20.8268V17.9373H85.2723V20.8307C85.2752 21.2005 85.2228 21.5685 85.1169 21.9228C85.0238 22.247 84.8666 22.5492 84.6546 22.8115C84.4398 23.0689 84.1664 23.2712 83.8575 23.4014C83.4961 23.5495 83.1081 23.6214 82.7177 23.6126" fill="white"/>
<path d="M88.1139 20.8029V23.5728H86.5636V17.9373H87.7711L90.0349 20.8029V17.9373H91.5812V23.5728H90.3497L88.1139 20.8029Z" fill="white"/>
<path d="M94.4904 17.9373H92.9441V23.5728H94.4904V17.9373Z" fill="white"/>
<path d="M100.245 19.2844H98.6272V23.5728H97.0809V19.2844H95.4549V17.9373H100.245V19.2844Z" fill="white"/>
<path d="M102.35 17.9373L103.354 20.2369L104.386 17.9373H106.072L104.127 21.7075V23.5728H102.589V21.6916L100.676 17.9373H102.35Z" fill="white"/>
<path d="M53.8869 31.6994V26.068H54.4448V31.2092H57.6969V31.6994H53.8869Z" fill="white"/>
<path d="M62.6945 31.2092V31.6994H58.9084V26.068H62.6228V26.5582H59.4664V28.5908H62.2203V29.0571H59.4664V31.2092H62.6945Z" fill="white"/>
<path d="M63.6591 28.8378C63.6597 28.4929 63.719 28.1506 63.8344 27.8255C63.9538 27.4956 64.1305 27.1893 64.3565 26.9208C64.5864 26.6459 64.8733 26.4242 65.1974 26.2712C65.5521 26.1032 65.9409 26.02 66.3333 26.0281C66.7865 26.0152 67.2338 26.1343 67.6206 26.3708C67.9661 26.5827 68.2429 26.89 68.4177 27.2556L67.9832 27.5266C67.8762 27.2973 67.718 27.0955 67.5209 26.9368C67.3462 26.7952 67.146 26.6883 66.9311 26.6219C66.7298 26.5594 66.5202 26.5271 66.3094 26.5263C65.9984 26.5198 65.6905 26.5896 65.4127 26.7295C65.1584 26.8612 64.9344 27.0444 64.755 27.2676C64.5783 27.4943 64.4433 27.7507 64.3565 28.0248C64.266 28.2973 64.2202 28.5826 64.221 28.8697C64.2195 29.1758 64.2735 29.4797 64.3804 29.7665C64.4816 30.0432 64.6314 30.2996 64.8228 30.5237C65.0101 30.741 65.2391 30.9186 65.4963 31.0458C65.7554 31.1776 66.0426 31.2446 66.3333 31.2411C66.5545 31.2402 66.7741 31.2025 66.9829 31.1295C67.2087 31.0546 67.4193 30.9399 67.6046 30.7907C67.8029 30.629 67.9623 30.4246 68.0709 30.1929L68.5292 30.432C68.4136 30.7118 68.2284 30.9573 67.9912 31.1454C67.7529 31.3385 67.4833 31.4895 67.1941 31.5918C66.9116 31.6875 66.6156 31.7373 66.3173 31.7393C65.9478 31.7445 65.5826 31.6597 65.2532 31.4922C64.9327 31.3266 64.6482 31.099 64.4163 30.8226C64.1801 30.5468 63.9951 30.231 63.8703 29.89C63.7477 29.5527 63.6844 29.1967 63.683 28.8378" fill="white"/>
<path d="M69.434 28.8378C69.4369 28.1372 69.6835 27.4594 70.1315 26.9208C70.3622 26.6467 70.6489 26.4252 70.9724 26.2711C71.3273 26.1039 71.716 26.0208 72.1083 26.028C72.5627 26.0157 73.011 26.1347 73.3995 26.3708C73.743 26.585 74.0192 26.8916 74.1966 27.2555L73.7582 27.5266C73.6525 27.2975 73.4957 27.0957 73.2999 26.9367C73.1237 26.7951 72.9222 26.6883 72.7061 26.6218C72.5048 26.559 72.2952 26.5267 72.0843 26.5262C71.7733 26.5197 71.4654 26.5895 71.1876 26.7295C70.9337 26.8599 70.7108 27.0434 70.534 27.2675C70.3574 27.4943 70.2224 27.7507 70.1355 28.0247C70.0485 28.2979 70.0041 28.5829 70.0039 28.8697C70.003 29.1753 70.0556 29.4788 70.1594 29.7664C70.2619 30.0433 70.4131 30.2998 70.6057 30.5236C70.7925 30.7399 71.02 30.9173 71.2753 31.0457C71.5344 31.1775 71.8216 31.2445 72.1122 31.241C72.3335 31.2401 72.553 31.2024 72.7619 31.1294C72.9887 31.054 73.2004 30.9393 73.3876 30.7906C73.5846 30.6286 73.7426 30.4243 73.8499 30.1928L74.3122 30.4319C74.1936 30.7111 74.0073 30.9563 73.7702 31.1453C73.5318 31.3384 73.2623 31.4894 72.9731 31.5917C72.6907 31.688 72.3946 31.7378 72.0963 31.7392C71.7268 31.7444 71.3616 31.6596 71.0322 31.4921C70.7116 31.3265 70.4272 31.0989 70.1953 30.8225C69.7248 30.2648 69.4652 29.5595 69.4619 28.8298" fill="white"/>
<path d="M79.4294 31.2092V31.6994H75.6472V26.068H79.3616V26.5582H76.2012V28.5908H78.9551V29.0571H76.2012V31.2092H79.4294Z" fill="white"/>
</svg>
