<svg width="19" height="18" viewBox="0 0 19 18" fill="none" xmlns="http://www.w3.org/2000/svg">
<g clip-path="url(#clip0_127_2179)">
<path d="M15.8011 2.61681C14.9761 1.78375 13.9934 1.12331 12.9104 0.674043C11.8274 0.224772 10.6657 -0.00434342 9.49325 6.23532e-05C4.58037 6.23532e-05 0.5765 4.00281 0.572 8.91681C0.572 10.4907 0.98375 12.0218 1.76113 13.3774L0.5 18.0001L5.2295 16.7603C6.5373 17.4738 8.00347 17.8471 9.49325 17.8459H9.49775C14.4118 17.8459 18.4145 13.8432 18.419 8.92469C18.42 7.7525 18.1891 6.5917 17.7396 5.50912C17.2901 4.42654 16.6321 3.44357 15.8011 2.61681ZM9.49325 16.3362C8.16482 16.3351 6.861 15.9777 5.71775 15.3012L5.44775 15.1392L2.642 15.8749L3.39125 13.1378L3.21575 12.8554C2.47303 11.6746 2.08023 10.3073 2.08287 8.91231C2.08287 4.83306 5.4095 1.50531 9.49775 1.50531C10.4717 1.50357 11.4364 1.69462 12.3361 2.06747C13.2359 2.44031 14.053 2.98757 14.7402 3.67769C15.4298 4.36523 15.9764 5.18242 16.3487 6.08218C16.7209 6.98194 16.9114 7.94647 16.9093 8.92019C16.9048 13.0141 13.5781 16.3362 9.49325 16.3362ZM13.5601 10.7854C13.3385 10.6741 12.2439 10.1352 12.038 10.0587C11.8332 9.98556 11.6836 9.94731 11.5374 10.1701C11.3877 10.3917 10.9603 10.8968 10.832 11.0419C10.7038 11.1916 10.571 11.2084 10.3482 11.0982C10.1266 10.9857 9.40775 10.7517 8.55725 9.99006C7.8935 9.39944 7.44913 8.66819 7.31638 8.44656C7.18813 8.22381 7.304 8.10456 7.41537 7.99319C7.51325 7.89419 7.637 7.73219 7.74837 7.60394C7.86087 7.47569 7.898 7.38119 7.97112 7.23269C8.04425 7.08194 8.00937 6.95369 7.95425 6.84231C7.898 6.73094 7.45362 5.63181 7.26575 5.18856C7.08575 4.75094 6.90237 4.81169 6.76512 4.80606C6.63687 4.79819 6.48725 4.79819 6.33763 4.79819C6.22465 4.80106 6.11348 4.82723 6.01107 4.87504C5.90867 4.92285 5.81724 4.99129 5.7425 5.07606C5.53775 5.29881 4.96513 5.83769 4.96513 6.93681C4.96513 8.03594 5.76387 9.09231 5.87637 9.24194C5.98662 9.39156 7.44462 11.6404 9.68225 12.6079C10.211 12.8386 10.6273 12.9747 10.9524 13.0782C11.4868 13.2492 11.9694 13.2233 12.3541 13.1682C12.7816 13.1029 13.6715 12.6282 13.8594 12.1073C14.0439 11.5853 14.0439 11.1398 13.9876 11.0464C13.9325 10.9519 13.7829 10.8968 13.5601 10.7854Z" fill="white"/>
</g>
<defs>
<clipPath id="clip0_127_2179">
<rect width="18" height="18" fill="white" transform="translate(0.5)"/>
</clipPath>
</defs>
</svg>
